<svg width="110" height="1032" viewBox="0 0 110 1032" fill="none" xmlns="http://www.w3.org/2000/svg">
<path d="M85.478 1032L92.7174 1007.4C100.044 982.636 114.523 933.444 108.156 884.424C101.789 835.404 74.4008 786.556 71.348 737.536C68.2952 688.516 89.5775 639.324 96.3808 589.96C103.184 540.596 95.683 491.404 95.7702 442.04C95.9447 392.676 103.795 343.484 105.277 294.464C106.673 245.444 101.789 196.596 90.4497 147.576C79.1108 98.556 61.3175 49.364 52.508 24.596L43.6113 0H0.00023584V24.596C0.00023584 49.364 0.00023584 98.556 0.00023584 147.576C0.00023584 196.596 0.00023584 245.444 0.00023584 294.464C0.00023584 343.484 0.00023584 392.676 0.00023584 442.04C0.00023584 491.404 0.00023584 540.596 0.00023584 589.96C0.00023584 639.324 0.00023584 688.516 0.00023584 737.536C0.00023584 786.556 0.00023584 835.404 0.00023584 884.424C0.00023584 933.444 0.00023584 982.636 0.00023584 1007.4V1032H85.478Z" fill="#797EF6"/>
<path d="M38.3779 1032L51.7229 1007.4C65.1551 982.636 91.8451 933.444 94.8107 884.424C97.689 835.404 76.7557 786.556 65.5912 737.536C54.3396 688.516 52.944 639.324 59.1368 589.96C65.4168 540.596 79.3723 491.404 89.5773 442.04C99.6951 392.676 106.15 343.484 105.365 294.464C104.667 245.444 96.8168 196.596 86.5246 147.576C76.1451 98.556 63.4106 49.364 56.9562 24.596L50.589 0H9.60789e-05V24.596C9.60789e-05 49.364 9.60789e-05 98.556 9.60789e-05 147.576C9.60789e-05 196.596 9.60789e-05 245.444 9.60789e-05 294.464C9.60789e-05 343.484 9.60789e-05 392.676 9.60789e-05 442.04C9.60789e-05 491.404 9.60789e-05 540.596 9.60789e-05 589.96C9.60789e-05 639.324 9.60789e-05 688.516 9.60789e-05 737.536C9.60789e-05 786.556 9.60789e-05 835.404 9.60789e-05 884.424C9.60789e-05 933.444 9.60789e-05 982.636 9.60789e-05 1007.4V1032H38.3779Z" fill="#5982ED"/>
<path d="M27.0391 1032L38.6397 1007.4C50.3274 982.636 73.5286 933.444 73.0052 884.424C72.3947 835.404 47.9725 786.556 41.6052 737.536C35.1508 688.516 46.8386 639.324 52.508 589.96C58.1775 540.596 57.8286 491.404 55.648 442.04C53.4674 392.676 49.4552 343.484 48.4086 294.464C47.3619 245.444 49.4552 196.596 58.003 147.576C66.5508 98.556 81.7274 49.364 89.2286 24.596L96.8169 0H0.000231981V24.596C0.000231981 49.364 0.000231981 98.556 0.000231981 147.576C0.000231981 196.596 0.000231981 245.444 0.000231981 294.464C0.000231981 343.484 0.000231981 392.676 0.000231981 442.04C0.000231981 491.404 0.000231981 540.596 0.000231981 589.96C0.000231981 639.324 0.000231981 688.516 0.000231981 737.536C0.000231981 786.556 0.000231981 835.404 0.000231981 884.424C0.000231981 933.444 0.000231981 982.636 0.000231981 1007.4V1032H27.0391Z" fill="#3C84E0"/>
<path d="M75.0115 1032L74.5754 1007.4C74.1393 982.636 73.267 933.444 67.772 884.424C62.1898 835.404 52.072 786.556 44.9198 737.536C37.7676 688.516 33.7554 639.324 38.8143 589.96C43.8731 540.596 58.1776 491.404 63.4109 442.04C68.6443 392.676 64.8065 343.484 55.5609 294.464C46.2282 245.444 31.4004 196.596 25.9054 147.576C20.3232 98.556 24.1609 49.364 25.9926 24.596L27.9115 0H0.000366688V24.596C0.000366688 49.364 0.000366688 98.556 0.000366688 147.576C0.000366688 196.596 0.000366688 245.444 0.000366688 294.464C0.000366688 343.484 0.000366688 392.676 0.000366688 442.04C0.000366688 491.404 0.000366688 540.596 0.000366688 589.96C0.000366688 639.324 0.000366688 688.516 0.000366688 737.536C0.000366688 786.556 0.000366688 835.404 0.000366688 884.424C0.000366688 933.444 0.000366688 982.636 0.000366688 1007.4V1032H75.0115Z" fill="#2684D0"/>
<path d="M14.828 1032L16.1363 1007.4C17.4447 982.636 20.0613 933.444 18.753 884.424C17.4447 835.404 12.2113 786.556 16.398 737.536C20.6719 688.516 34.2786 639.324 34.0169 589.96C33.7552 540.596 19.4508 491.404 13.6941 442.04C7.85023 392.676 10.4669 343.484 15.7002 294.464C20.9336 245.444 28.7836 196.596 35.0636 147.576C41.2563 98.556 45.9663 49.364 48.2341 24.596L50.5891 0H0.000221133V24.596C0.000221133 49.364 0.000221133 98.556 0.000221133 147.576C0.000221133 196.596 0.000221133 245.444 0.000221133 294.464C0.000221133 343.484 0.000221133 392.676 0.000221133 442.04C0.000221133 491.404 0.000221133 540.596 0.000221133 589.96C0.000221133 639.324 0.000221133 688.516 0.000221133 737.536C0.000221133 786.556 0.000221133 835.404 0.000221133 884.424C0.000221133 933.444 0.000221133 982.636 0.000221133 1007.4V1032H14.828Z" fill="#1F82BF"/>
</svg>
