<svg width="110" height="1032" viewBox="0 0 110 1032" fill="none" xmlns="http://www.w3.org/2000/svg">
<path d="M24.2556 1032L17.0162 1007.4C9.68953 982.636 -4.78937 933.444 1.57785 884.424C7.94507 835.404 35.3329 786.556 38.3856 737.536C41.4384 688.516 20.1562 639.324 13.3528 589.96C6.54951 540.596 14.0506 491.404 13.9634 442.04C13.789 392.676 5.93895 343.484 4.45617 294.464C3.06062 245.444 7.94506 196.596 19.2839 147.576C30.6228 98.556 48.4162 49.364 57.2256 24.596L66.1223 0H109.733V24.596C109.733 49.364 109.733 98.556 109.733 147.576C109.733 196.596 109.733 245.444 109.733 294.464C109.733 343.484 109.733 392.676 109.733 442.04C109.733 491.404 109.733 540.596 109.733 589.96C109.733 639.324 109.733 688.516 109.733 737.536C109.733 786.556 109.733 835.404 109.733 884.424C109.733 933.444 109.733 982.636 109.733 1007.4V1032H24.2556Z" fill="#797EF6"/>
<path d="M71.3558 1032L58.0108 1007.4C44.5786 982.636 17.8885 933.444 14.923 884.424C12.0446 835.404 32.978 786.556 44.1424 737.536C55.3941 688.516 56.7897 639.324 50.5969 589.96C44.3169 540.596 30.3613 491.404 20.1563 442.04C10.0385 392.676 3.58411 343.484 4.36911 294.464C5.06689 245.444 12.9169 196.596 23.2091 147.576C33.5885 98.556 46.323 49.364 52.7774 24.596L59.1447 0H109.734V24.596C109.734 49.364 109.734 98.556 109.734 147.576C109.734 196.596 109.734 245.444 109.734 294.464C109.734 343.484 109.734 392.676 109.734 442.04C109.734 491.404 109.734 540.596 109.734 589.96C109.734 639.324 109.734 688.516 109.734 737.536C109.734 786.556 109.734 835.404 109.734 884.424C109.734 933.444 109.734 982.636 109.734 1007.4V1032H71.3558Z" fill="#5982ED"/>
<path d="M82.6945 1032L71.094 1007.4C59.4062 982.636 36.2051 933.444 36.7284 884.424C37.339 835.404 61.7612 786.556 68.1284 737.536C74.5828 688.516 62.8951 639.324 57.2256 589.96C51.5562 540.596 51.9051 491.404 54.0856 442.04C56.2662 392.676 60.2784 343.484 61.3251 294.464C62.3717 245.444 60.2784 196.596 51.7306 147.576C43.1829 98.556 28.0062 49.364 20.5051 24.596L12.9167 0H109.733V24.596C109.733 49.364 109.733 98.556 109.733 147.576C109.733 196.596 109.733 245.444 109.733 294.464C109.733 343.484 109.733 392.676 109.733 442.04C109.733 491.404 109.733 540.596 109.733 589.96C109.733 639.324 109.733 688.516 109.733 737.536C109.733 786.556 109.733 835.404 109.733 884.424C109.733 933.444 109.733 982.636 109.733 1007.4V1032H82.6945Z" fill="#3C84E0"/>
<path d="M34.7222 1032L35.1583 1007.4C35.5944 982.636 36.4666 933.444 41.9616 884.424C47.5438 835.404 57.6616 786.556 64.8138 737.536C71.9661 688.516 75.9783 639.324 70.9194 589.96C65.8605 540.596 51.556 491.404 46.3227 442.04C41.0894 392.676 44.9272 343.484 54.1727 294.464C63.5055 245.444 78.3333 196.596 83.8283 147.576C89.4105 98.556 85.5727 49.364 83.7411 24.596L81.8222 0H109.733V24.596C109.733 49.364 109.733 98.556 109.733 147.576C109.733 196.596 109.733 245.444 109.733 294.464C109.733 343.484 109.733 392.676 109.733 442.04C109.733 491.404 109.733 540.596 109.733 589.96C109.733 639.324 109.733 688.516 109.733 737.536C109.733 786.556 109.733 835.404 109.733 884.424C109.733 933.444 109.733 982.636 109.733 1007.4V1032H34.7222Z" fill="#2684D0"/>
<path d="M94.9056 1032L93.5973 1007.4C92.289 982.636 89.6723 933.444 90.9806 884.424C92.289 835.404 97.5223 786.556 93.3357 737.536C89.0618 688.516 75.4551 639.324 75.7168 589.96C75.9784 540.596 90.2829 491.404 96.0395 442.04C101.883 392.676 99.2668 343.484 94.0334 294.464C88.8001 245.444 80.9501 196.596 74.6701 147.576C68.4773 98.556 63.7673 49.364 61.4995 24.596L59.1445 0H109.733V24.596C109.733 49.364 109.733 98.556 109.733 147.576C109.733 196.596 109.733 245.444 109.733 294.464C109.733 343.484 109.733 392.676 109.733 442.04C109.733 491.404 109.733 540.596 109.733 589.96C109.733 639.324 109.733 688.516 109.733 737.536C109.733 786.556 109.733 835.404 109.733 884.424C109.733 933.444 109.733 982.636 109.733 1007.4V1032H94.9056Z" fill="#1F82BF"/>
</svg>
