<svg width="110" height="1024" viewBox="0 0 110 1024" fill="none" xmlns="http://www.w3.org/2000/svg">
<path d="M85.7446 1032L92.9841 1007.4C100.311 982.636 114.79 933.444 108.422 884.424C102.055 835.404 74.6674 786.556 71.6146 737.536C68.5618 688.516 89.8441 639.324 96.6474 589.96C103.451 540.596 95.9496 491.404 96.0368 442.04C96.2113 392.676 104.061 343.484 105.544 294.464C106.94 245.444 102.055 196.596 90.7163 147.576C79.3774 98.556 61.5841 49.364 52.7746 24.596L43.8779 0H0.266837V24.596C0.266837 49.364 0.266837 98.556 0.266837 147.576C0.266837 196.596 0.266837 245.444 0.266837 294.464C0.266837 343.484 0.266837 392.676 0.266837 442.04C0.266837 491.404 0.266837 540.596 0.266837 589.96C0.266837 639.324 0.266837 688.516 0.266837 737.536C0.266837 786.556 0.266837 835.404 0.266837 884.424C0.266837 933.444 0.266837 982.636 0.266837 1007.4V1032H85.7446Z" fill="#FA7268" id='1' />
<path d="M38.6445 1032L51.9895 1007.4C65.4217 982.636 92.1117 933.444 95.0773 884.424C97.9556 835.404 77.0223 786.556 65.8578 737.536C54.6062 688.516 53.2106 639.324 59.4034 589.96C65.6834 540.596 79.6389 491.404 89.8439 442.04C99.9617 392.676 106.416 343.484 105.631 294.464C104.933 245.444 97.0834 196.596 86.7912 147.576C76.4117 98.556 63.6772 49.364 57.2228 24.596L50.8556 0H0.266698V24.596C0.266698 49.364 0.266698 98.556 0.266698 147.576C0.266698 196.596 0.266698 245.444 0.266698 294.464C0.266698 343.484 0.266698 392.676 0.266698 442.04C0.266698 491.404 0.266698 540.596 0.266698 589.96C0.266698 639.324 0.266698 688.516 0.266698 737.536C0.266698 786.556 0.266698 835.404 0.266698 884.424C0.266698 933.444 0.266698 982.636 0.266698 1007.4V1032H38.6445Z" fill="#EF5F67" id="2"/>
<path d="M27.3057 1032L38.9063 1007.4C50.594 982.636 73.7952 933.444 73.2718 884.424C72.6613 835.404 48.2391 786.556 41.8718 737.536C35.4174 688.516 47.1052 639.324 52.7746 589.96C58.4441 540.596 58.0952 491.404 55.9146 442.04C53.734 392.676 49.7218 343.484 48.6752 294.464C47.6285 245.444 49.7218 196.596 58.2696 147.576C66.8174 98.556 81.994 49.364 89.4952 24.596L97.0835 0H0.266834V24.596C0.266834 49.364 0.266834 98.556 0.266834 147.576C0.266834 196.596 0.266834 245.444 0.266834 294.464C0.266834 343.484 0.266834 392.676 0.266834 442.04C0.266834 491.404 0.266834 540.596 0.266834 589.96C0.266834 639.324 0.266834 688.516 0.266834 737.536C0.266834 786.556 0.266834 835.404 0.266834 884.424C0.266834 933.444 0.266834 982.636 0.266834 1007.4V1032H27.3057Z" fill="#E34C67" id="3"/>
<path d="M75.2781 1032L74.842 1007.4C74.4059 982.636 73.5336 933.444 68.0386 884.424C62.4564 835.404 52.3386 786.556 45.1864 737.536C38.0342 688.516 34.022 639.324 39.0809 589.96C44.1397 540.596 58.4442 491.404 63.6775 442.04C68.9109 392.676 65.0731 343.484 55.8275 294.464C46.4948 245.444 31.667 196.596 26.172 147.576C20.5898 98.556 24.4275 49.364 26.2592 24.596L28.1781 0H0.266968V24.596C0.266968 49.364 0.266968 98.556 0.266968 147.576C0.266968 196.596 0.266968 245.444 0.266968 294.464C0.266968 343.484 0.266968 392.676 0.266968 442.04C0.266968 491.404 0.266968 540.596 0.266968 589.96C0.266968 639.324 0.266968 688.516 0.266968 737.536C0.266968 786.556 0.266968 835.404 0.266968 884.424C0.266968 933.444 0.266968 982.636 0.266968 1007.4V1032H75.2781Z" fill="#D53867" id="4"/>
<path d="M15.0946 1032L16.4029 1007.4C17.7113 982.636 20.3279 933.444 19.0196 884.424C17.7113 835.404 12.4779 786.556 16.6646 737.536C20.9385 688.516 34.5452 639.324 34.2835 589.96C34.0218 540.596 19.7174 491.404 13.9607 442.04C8.11683 392.676 10.7335 343.484 15.9668 294.464C21.2002 245.444 29.0502 196.596 35.3302 147.576C41.5229 98.556 46.2329 49.364 48.5007 24.596L50.8557 0H0.266823V24.596C0.266823 49.364 0.266823 98.556 0.266823 147.576C0.266823 196.596 0.266823 245.444 0.266823 294.464C0.266823 343.484 0.266823 392.676 0.266823 442.04C0.266823 491.404 0.266823 540.596 0.266823 589.96C0.266823 639.324 0.266823 688.516 0.266823 737.536C0.266823 786.556 0.266823 835.404 0.266823 884.424C0.266823 933.444 0.266823 982.636 0.266823 1007.4V1032H15.0946Z" fill="#C62368" id="5"/>
</svg>
