<svg width="110" height="1024" viewBox="0 0 110 1024" fill="none" xmlns="http://www.w3.org/2000/svg">
<path d="M24.5222 1032L17.2828 1007.4C9.95613 982.636 -4.52277 933.444 1.84445 884.424C8.21167 835.404 35.5995 786.556 38.6522 737.536C41.705 688.516 20.4228 639.324 13.6194 589.96C6.81612 540.596 14.3172 491.404 14.23 442.04C14.0556 392.676 6.20555 343.484 4.72277 294.464C3.32722 245.444 8.21166 196.596 19.5506 147.576C30.8894 98.556 48.6828 49.364 57.4922 24.596L66.3889 0H110V24.596C110 49.364 110 98.556 110 147.576C110 196.596 110 245.444 110 294.464C110 343.484 110 392.676 110 442.04C110 491.404 110 540.596 110 589.96C110 639.324 110 688.516 110 737.536C110 786.556 110 835.404 110 884.424C110 933.444 110 982.636 110 1007.4V1032H24.5222Z" fill="#FA7268" id="1"/>
<path d="M71.6224 1032L58.2774 1007.4C44.8452 982.636 18.1551 933.444 15.1896 884.424C12.3112 835.404 33.2446 786.556 44.409 737.536C55.6607 688.516 57.0563 639.324 50.8635 589.96C44.5835 540.596 30.6279 491.404 20.4229 442.04C10.3051 392.676 3.85071 343.484 4.63571 294.464C5.33349 245.444 13.1835 196.596 23.4757 147.576C33.8551 98.556 46.5896 49.364 53.044 24.596L59.4113 0H110V24.596C110 49.364 110 98.556 110 147.576C110 196.596 110 245.444 110 294.464C110 343.484 110 392.676 110 442.04C110 491.404 110 540.596 110 589.96C110 639.324 110 688.516 110 737.536C110 786.556 110 835.404 110 884.424C110 933.444 110 982.636 110 1007.4V1032H71.6224Z" fill="#EF5F67" id="2"/>
<path d="M82.9611 1032L71.3606 1007.4C59.6728 982.636 36.4717 933.444 36.995 884.424C37.6056 835.404 62.0278 786.556 68.395 737.536C74.8494 688.516 63.1617 639.324 57.4922 589.96C51.8228 540.596 52.1717 491.404 54.3522 442.04C56.5328 392.676 60.545 343.484 61.5917 294.464C62.6383 245.444 60.545 196.596 51.9972 147.576C43.4495 98.556 28.2728 49.364 20.7717 24.596L13.1833 0H110V24.596C110 49.364 110 98.556 110 147.576C110 196.596 110 245.444 110 294.464C110 343.484 110 392.676 110 442.04C110 491.404 110 540.596 110 589.96C110 639.324 110 688.516 110 737.536C110 786.556 110 835.404 110 884.424C110 933.444 110 982.636 110 1007.4V1032H82.9611Z" fill="#E34C67" id="3"/>
<path d="M34.9888 1032L35.4249 1007.4C35.861 982.636 36.7332 933.444 42.2282 884.424C47.8104 835.404 57.9282 786.556 65.0804 737.536C72.2327 688.516 76.2449 639.324 71.186 589.96C66.1271 540.596 51.8226 491.404 46.5893 442.04C41.356 392.676 45.1938 343.484 54.4393 294.464C63.7721 245.444 78.5999 196.596 84.0949 147.576C89.6771 98.556 85.8393 49.364 84.0077 24.596L82.0888 0H110V24.596C110 49.364 110 98.556 110 147.576C110 196.596 110 245.444 110 294.464C110 343.484 110 392.676 110 442.04C110 491.404 110 540.596 110 589.96C110 639.324 110 688.516 110 737.536C110 786.556 110 835.404 110 884.424C110 933.444 110 982.636 110 1007.4V1032H34.9888Z" fill="#D53867" id="4"/>
<path d="M95.1722 1032L93.8639 1007.4C92.5556 982.636 89.9389 933.444 91.2472 884.424C92.5556 835.404 97.7889 786.556 93.6023 737.536C89.3284 688.516 75.7217 639.324 75.9834 589.96C76.245 540.596 90.5495 491.404 96.3061 442.04C102.15 392.676 99.5334 343.484 94.3 294.464C89.0667 245.444 81.2167 196.596 74.9367 147.576C68.7439 98.556 64.0339 49.364 61.7661 24.596L59.4111 0H110V24.596C110 49.364 110 98.556 110 147.576C110 196.596 110 245.444 110 294.464C110 343.484 110 392.676 110 442.04C110 491.404 110 540.596 110 589.96C110 639.324 110 688.516 110 737.536C110 786.556 110 835.404 110 884.424C110 933.444 110 982.636 110 1007.4V1032H95.1722Z" fill="#C62368" id="5"/>
</svg>
